name analog
datacolumns 19
datarows 39
range 0.5285 0.5475
endheader
time	ground_force_vx	ground_force_vy	ground_force_vz	ground_force_px	ground_force_py	ground_force_pz	l_ground_force_vx	l_ground_force_vy	l_ground_force_vz	l_ground_force_px	l_ground_force_py	l_ground_force_pz	ground_torque_x	ground_torque_y	ground_torque_z	l_ground_torque_x	l_ground_torque_y	l_ground_torque_z
0.5285	-0.0	-0.0	-0.0	6.165164947509766	5.459849834442139	-749.672119140625	-0.0	-0.0	-0.0	-34.92597961425781	15.99940586090088	75.64006042480469	-0.0	-0.0	-0.0	-0.0	-0.0	-0.0
0.529	-0.0	-0.0	-0.0	6.259421348571777	5.816032886505127	-749.801025390625	-0.0	-0.0	-0.0	-34.87858200073242	16.194534301757812	75.8056640625	-0.0	-0.0	-0.0	-0.0	-0.0	-0.0
0.5295	-0.0	-0.0	-0.0	5.493869781494141	6.149997711181641	-746.4948120117188	-0.0	-0.0	-0.0	-34.75203323364258	16.104564666748047	74.95867156982422	-0.0	-0.0	-0.0	-0.0	-0.0	-0.0
0.53	-0.0	-0.0	-0.0	5.122067928314209	6.768890857696533	-743.1304321289062	-0.0	-0.0	-0.0	-34.83621597290039	16.019865036010742	75.95030975341797	-0.0	-0.0	-0.0	-0.0	-0.0	-0.0
0.5305	-0.0	-0.0	-0.0	4.2821044921875	7.051491737365723	-741.864501953125	-0.0	-0.0	-0.0	-34.58367156982422	16.279157638549805	76.01242065429688	-0.0	-0.0	-0.0	-0.0	-0.0	-0.0
0.531	-0.0	-0.0	-0.0	3.389999389648437	7.004448413848877	-737.85400390625	-0.0	-0.0	-0.0	-34.62042999267578	16.332185745239258	75.68276977539062	-0.0	-0.0	-0.0	-0.0	-0.0	-0.0
0.5315	-0.0	-0.0	-0.0	3.4267728328704834	7.025651931762695	-735.279296875	-0.0	-0.0	-0.0	-34.54035949707031	16.020063400268555	75.78433227539062	-0.0	-0.0	-0.0	-0.0	-0.0	-0.0
0.532	-0.0	-0.0	-0.0	2.860032796859741	6.863040924072266	-734.2191162109375	-0.0	-0.0	-0.0	-34.76288604736328	15.83465576171875	76.1782455444336	-0.0	-0.0	-0.0	-0.0	-0.0	-0.0
0.5325	-0.0	-0.0	-0.0	2.5924580097198486	6.10810661315918	-734.4270629882812	-0.0	-0.0	-0.0	-35.06215286254883	16.236719131469727	75.90467071533203	-0.0	-0.0	-0.0	-0.0	-0.0	-0.0
0.533	-0.0	-0.0	-0.0	2.7655258178710938	5.662492275238037	-732.1635131835938	-0.0	-0.0	-0.0	-35.115272521972656	16.248035430908203	76.71626281738281	-0.0	-0.0	-0.0	-0.0	-0.0	-0.0
0.5335	-0.0	-0.0	-0.0	3.1278717517852783	5.049614906311035	-730.7728881835938	-0.0	-0.0	-0.0	-34.746036529541016	16.30751609802246	75.31289672851562	-0.0	-0.0	-0.0	-0.0	-0.0	-0.0
0.534	-0.0	-0.0	-0.0	2.885453939437866	4.099998474121094	-731.3140258789062	-0.0	-0.0	-0.0	-34.79357147216797	16.116174697875977	76.201904296875	-0.0	-0.0	-0.0	-0.0	-0.0	-0.0
0.5345	-0.0	-0.0	-0.0	3.537891149520874	2.6851627826690674	-730.7515869140625	-0.0	-0.0	-0.0	-34.865413665771484	15.900223731994627	74.87093353271484	-0.0	-0.0	-0.0	-0.0	-0.0	-0.0
0.535	-0.0	-0.0	-0.0	3.5855376720428467	2.376207113265991	-731.4356689453125	-0.0	-0.0	-0.0	-35.03779983520508	16.020551681518555	75.68827819824219	-0.0	-0.0	-0.0	-0.0	-0.0	-0.0
0.5355	-0.0	-0.0	-0.0	3.800103664398194	1.883270621299744	-731.9821166992188	-0.0	-0.0	-0.0	-34.847068786621094	16.338523864746094	75.61843872070312	-0.0	-0.0	-0.0	-0.0	-0.0	-0.0
0.536	-0.0	-0.0	-0.0	3.752676963806152	1.212005853652954	-734.2841796875	-0.0	-0.0	-0.0	-34.69173049926758	16.26691436767578	76.507568359375	-0.0	-0.0	-0.0	-0.0	-0.0	-0.0
0.5365	-0.0	-0.0	-0.0	3.306699752807617	1.59844172000885	-734.6844482421875	-0.0	-0.0	-0.0	-35.019927978515625	16.47060775756836	76.39219665527344	-0.0	-0.0	-0.0	-0.0	-0.0	-0.0
0.537	-0.0	-0.0	-0.0	3.2888166904449463	1.9133132696151731	-734.9437866210938	-0.0	-0.0	-0.0	-34.8117561340332	16.15266990661621	74.5651626586914	-0.0	-0.0	-0.0	-0.0	-0.0	-0.0
0.5375	-0.0	-0.0	-0.0	2.973454713821411	2.513751983642578	-734.048583984375	-0.0	-0.0	-0.0	-35.00323867797852	16.541854858398438	75.50370025634766	-0.0	-0.0	-0.0	-0.0	-0.0	-0.0
0.538	-0.0	-0.0	-0.0	2.6763153076171875	2.7154228687286377	-735.1561279296875	-0.0	-0.0	-0.0	-34.88880157470703	16.110919952392578	76.36927795410156	-0.0	-0.0	-0.0	-0.0	-0.0	-0.0
0.5385	-0.0	-0.0	-0.0	2.313283681869507	2.9518563747406006	-734.3764038085938	-0.0	-0.0	-0.0	-34.65556716918945	16.104564666748047	75.64273071289062	-0.0	-0.0	-0.0	-0.0	-0.0	-0.0
0.539	-0.0	-0.0	-0.0	2.657585620880127	3.357984066009521	-733.530029296875	-0.0	-0.0	-0.0	-34.78642272949219	15.882889747619627	76.507568359375	-0.0	-0.0	-0.0	-0.0	-0.0	-0.0
0.5395	-0.0	-0.0	-0.0	2.842099189758301	3.730851173400879	-734.5391845703125	-0.0	-0.0	-0.0	-34.82773208618164	15.944350242614746	74.4531478881836	-0.0	-0.0	-0.0	-0.0	-0.0	-0.0
0.54	-0.0	-0.0	-0.0	2.9853551387786865	4.08083438873291	-733.3907470703125	-0.0	-0.0	-0.0	-35.12236785888672	16.249494552612305	76.67007446289062	-0.0	-0.0	-0.0	-0.0	-0.0	-0.0
0.5405	-0.0	-0.0	-0.0	3.06168270111084	4.930671691894531	-731.4611206054688	-0.0	-0.0	-0.0	-34.72318649291992	15.939508438110352	75.64323425292969	-0.0	-0.0	-0.0	-0.0	-0.0	-0.0
0.541	-0.0	-0.0	-0.0	3.1135528087615967	6.047864437103272	-727.5506591796875	-0.0	-0.0	-0.0	-34.75798034667969	16.09779930114746	75.75288391113281	-0.0	-0.0	-0.0	-0.0	-0.0	-0.0
0.5415	-0.0	-0.0	-0.0	3.21816086769104	7.13043212890625	-724.7512817382812	-0.0	-0.0	-0.0	-34.79254150390625	16.242938995361328	74.96831512451172	-0.0	-0.0	-0.0	-0.0	-0.0	-0.0
0.542	-0.0	-0.0	-0.0	3.2528693675994877	8.015113830566406	-721.7423706054688	-0.0	-0.0	-0.0	-34.764888763427734	16.422901153564453	76.18347930908203	-0.0	-0.0	-0.0	-0.0	-0.0	-0.0
0.5425	-0.0	-0.0	-0.0	3.4312527179718018	8.89294719696045	-720.813720703125	-0.0	-0.0	-0.0	-34.87495422363281	15.910698890686035	74.91470336914062	-0.0	-0.0	-0.0	-0.0	-0.0	-0.0
0.543	-0.0	-0.0	-0.0	4.58417272567749	8.995397567749023	-719.6175537109375	-0.0	-0.0	-0.0	-34.79234313964844	16.14603042602539	75.75074768066406	-0.0	-0.0	-0.0	-0.0	-0.0	-0.0
0.5435	-0.0	-0.0	-0.0	6.1074981689453125	8.803398132324219	-718.8566284179688	-0.0	-0.0	-0.0	-34.922935485839844	16.104564666748047	75.265380859375	-0.0	-0.0	-0.0	-0.0	-0.0	-0.0
0.544	-0.0	-0.0	-0.0	6.786904811859131	8.364742279052734	-718.3680419921875	-0.0	-0.0	-0.0	-34.65446853637695	16.118898391723633	75.83362579345703	-0.0	-0.0	-0.0	-0.0	-0.0	-0.0
0.5445	-0.0	-0.0	-0.0	8.378806114196777	7.274590492248535	-719.2095336914062	-0.0	-0.0	-0.0	-34.9710578918457	16.250383377075195	75.53129577636719	-0.0	-0.0	-0.0	-0.0	-0.0	-0.0
0.545	-0.0	-0.0	-0.0	10.155884742736816	6.7399210929870605	-720.1339111328125	-0.0	-0.0	-0.0	-34.93717193603516	16.194534301757812	74.43040466308594	-0.0	-0.0	-0.0	-0.0	-0.0	-0.0
0.5455	-0.0	-0.0	-0.0	10.698148727416992	5.347824096679688	-721.8997802734375	-0.0	-0.0	-0.0	-34.825740814208984	15.924625396728516	75.35116577148438	-0.0	-0.0	-0.0	-0.0	-0.0	-0.0
0.546	-0.0	-0.0	-0.0	11.54197883605957	4.319233417510986	-722.8455200195312	-0.0	-0.0	-0.0	-34.63922500610352	16.194534301757812	75.71846008300781	-0.0	-0.0	-0.0	-0.0	-0.0	-0.0
0.5465	-0.0	-0.0	-0.0	11.233261108398438	3.449662685394287	-723.8854370117188	-0.0	-0.0	-0.0	-34.7024040222168	16.02964973449707	75.61550903320312	-0.0	-0.0	-0.0	-0.0	-0.0	-0.0
0.547	-0.0	-0.0	-0.0	11.590054512023926	2.722129821777344	-722.606201171875	-0.0	-0.0	-0.0	-35.10115051269531	16.266036987304688	76.47801208496094	-0.0	-0.0	-0.0	-0.0	-0.0	-0.0
0.5475	-0.0	-0.0	-0.0	11.604753494262695	2.681292772293091	-720.927978515625	-0.0	-0.0	-0.0	-34.612815856933594	16.356273651123047	76.0372085571289	-0.0	-0.0	-0.0	-0.0	-0.0	-0.0
